<?xml version="1.0" standalone="no"?>
<!DOCTYPE svg PUBLIC "-//W3C//DTD SVG 20010904//EN"
 "http://www.w3.org/TR/2001/REC-SVG-20010904/DTD/svg10.dtd">
<svg version="1.0" xmlns="http://www.w3.org/2000/svg"
 width="507.000000pt" height="507.000000pt" viewBox="0 0 507.000000 507.000000"
 preserveAspectRatio="xMidYMid meet">
<metadata>
Created by potrace 1.14, written by Peter Selinger 2001-2017
</metadata>
<g transform="translate(0.000000,507.000000) scale(0.100000,-0.100000)"
fill="#000000" stroke="none">
<path d="M2488 4895 c-2 -2 -59 -6 -128 -9 -69 -3 -134 -8 -145 -10 -11 -2
-42 -7 -70 -10 -133 -18 -455 -103 -480 -127 -5 -5 -15 -9 -22 -9 -25 0 -217
-92 -330 -159 -484 -284 -855 -741 -1033 -1271 -28 -81 -57 -188 -69 -250 -18
-89 -20 -100 -26 -144 -3 -22 -9 -70 -14 -106 -21 -153 -4 -523 34 -710 54
-269 184 -584 337 -815 396 -597 1016 -971 1731 -1043 141 -14 448 -6 565 14
191 34 327 70 492 131 434 162 854 498 1106 886 26 40 55 83 64 97 31 48 128
245 164 338 34 85 88 253 100 312 3 14 10 43 15 65 5 22 12 58 15 80 4 23 8
51 11 64 20 103 27 466 12 581 -4 30 -10 71 -12 90 -3 19 -7 48 -11 63 -3 16
-7 38 -8 50 -2 12 -6 31 -9 42 -3 11 -8 32 -11 48 -6 32 -6 35 -42 152 -52
173 -157 408 -234 522 -17 24 -30 46 -30 48 0 4 -85 127 -107 155 -176 224
-373 406 -595 551 -110 71 -338 185 -458 228 -223 80 -424 121 -656 136 -54 4
-111 8 -126 10 -15 1 -29 1 -30 0z"/>
</g>
</svg>
