<svg xmlns="http://www.w3.org/2000/svg" xmlns:xlink="http://www.w3.org/1999/xlink" viewBox="0 0 119.32 121.46"><defs><style>.cls-1{fill:#fff;}.cls-2{fill:url(#linear-gradient);}.cls-3{fill:url(#linear-gradient-2);}.cls-4{fill:url(#linear-gradient-3);}</style><linearGradient id="linear-gradient" x1="72.82" y1="77.83" x2="72.82" y2="84.54" gradientUnits="userSpaceOnUse"><stop offset="0" stop-color="#5e1d78"/><stop offset="1" stop-color="#35b8c7"/></linearGradient><linearGradient id="linear-gradient-2" x1="73.58" y1="81.2" x2="85.59" y2="81.2" xlink:href="#linear-gradient"/><linearGradient id="linear-gradient-3" x1="47.22" y1="26.19" x2="73.04" y2="94.15" xlink:href="#linear-gradient"/></defs><title>tronlogothanh</title><g id="Layer_2" data-name="Layer 2"><circle class="cls-1" cx="59.66" cy="60.73" r="49.66"/></g><g id="Layer_1" data-name="Layer 1"><polygon class="cls-2" points="66.81 84.8 71.91 84.8 78.82 77.61 73.61 77.61 66.81 84.8"/><polygon class="cls-3" points="85.59 77.61 80.38 77.61 73.58 84.8 78.68 84.8 85.59 77.61"/><path class="cls-4" d="M82.55,35.08c5,0,9-3.24,9.1-7.23H68.48a7.31,7.31,0,0,0-.81,0h-22a4.22,4.22,0,0,0-.62,0,4.43,4.43,0,0,0-.63,0,5.4,5.4,0,0,0-4.11,2.28s0,0,0,0h0a1.83,1.83,0,0,0-.18.3l.14-.22a1.28,1.28,0,0,0-.15.25,2.43,2.43,0,0,0-.14.28.14.14,0,0,1,0,.06c0,.09-.07.18-.1.26l0,.07v0a1.05,1.05,0,0,0-.05.19v0a.19.19,0,0,0,0,.07L27.83,79.14a.14.14,0,0,0,0,.06l-.06.21h0a3.66,3.66,0,0,0-.09.81c0,2.52,2.54,4.57,5.67,4.57h2.31l-2.73,2.85a1,1,0,0,0-.08.11A7,7,0,0,0,29,93.61H76.48c5,0,9-3.23,9.1-7.23H45.78l1.51-1.58H64.88l6.91-7.2H54.19l30.73-32,.12-.13.67-.7.15-.59,0,0c0-.11.08-.22.11-.33v0l0-.15s0,0,0,0,0-.21,0-.32a2.85,2.85,0,0,0,0-.51c0-2.42-2.33-4.4-5.29-4.55a3.81,3.81,0,0,0-.78,0H48.3l.76-3.12Zm-9.36,10.4-6.71,7-6.87,7.2L42.5,77.6h-4L43,59.7H58.5l6.76-7.2H44.79l1.72-7Z"/></g></svg>